<svg xmlns="http://www.w3.org/2000/svg" height="800" width="1200" viewBox="-44.88 -34.1 388.96 204.6"><linearGradient gradientTransform="matrix(1.7647 0 0 -1.7647 -.1 525.923)" gradientUnits="userSpaceOnUse" y2="280.9" y1="280.9" x2="108.05" x1="61" id="a"><stop stop-color="#EC8523" offset="0"/><stop stop-color="#ED7745" offset=".35"/><stop stop-color="#EC7046" offset=".46"/><stop stop-color="#E95D48" offset=".79"/><stop stop-color="#E85448" offset="1"/></linearGradient><path d="M163.3 60.4h-55.8V0h83.2v60.4h-7.3V7.1h-68.6v46.1h48.5" fill="url(#a)"/><path d="M14.3 107.3C6.1 107.3 0 102.6 0 92.1V75.4h6.4v16.5c0 6.7 2.9 10 8 10s8-3.3 8-10V75.4h6.2v16.7c-.1 10.5-6.1 15.2-14.3 15.2zm26.4-13.1v12.2h-6V84.1h5.5l.3 4.1c1.3-2.6 4.6-4.7 8.3-4.7v5.9c-4.1-1.1-8.1 1-8.1 4.8zm25.5 12.9c-3.2 0-6.5-1.5-8.3-4.2l-.2 3.6h-5.4V75.4h6v11.7c1.9-2.4 5-3.7 8-3.7 6.1 0 10.5 5.1 10.5 11.8 0 6.7-4.5 11.9-10.6 11.9zm-1.8-19.2c-3.5 0-6.4 2.7-6.4 7.4 0 4.6 2.9 7.4 6.4 7.4 3.5 0 6.4-2.7 6.4-7.4-.1-4.7-2.9-7.4-6.4-7.4zm34.8 18.6l-.2-3.6c-1.9 2.7-5.2 4.2-8.3 4.2-6.1 0-10.5-5.1-10.5-11.8 0-6.7 4.5-11.8 10.5-11.8 3.2 0 6.5 1.5 8.3 4.2l.2-3.6h5.4v22.4zm-6.7-18.6c-3.5 0-6.4 2.7-6.4 7.4 0 4.6 2.9 7.4 6.4 7.4 3.5 0 6.4-2.7 6.4-7.4-.1-4.7-2.9-7.4-6.4-7.4zm34.2 18.6V94.1c0-4.4-1.5-5.8-4.3-5.8-2.9 0-6 2.6-6 5.7v12.5h-6V84.1h5.5l.3 4.1c1.5-2.9 4.9-4.8 8.3-4.8 6 0 8.2 4.1 8.2 9.7v13.3h-6zm22.3 0V75.4h6.3v26.2h13.9v4.9zm41.4 0l-.2-3.6c-1.9 2.7-5.2 4.2-8.3 4.2-6.1 0-10.5-5.1-10.5-11.8 0-6.7 4.5-11.8 10.5-11.8 3.2 0 6.5 1.5 8.3 4.2l.2-3.6h5.4v22.4zm-6.7-18.6c-3.5 0-6.4 2.7-6.4 7.4 0 4.6 2.9 7.4 6.4 7.4 3.5 0 6.4-2.7 6.4-7.4s-2.9-7.4-6.4-7.4zm35.8 18.6l-.2-3.6c-1.9 2.7-5.2 4.2-8.3 4.2-6.1 0-10.5-5.1-10.5-11.8 0-6.7 4.5-11.8 10.5-11.8 3 0 6.1 1.2 8 3.7V75.4h6v31.1zm-6.7-18.6c-3.5 0-6.4 2.7-6.4 7.4 0 4.6 2.9 7.4 6.4 7.4 3.5 0 6.4-2.7 6.4-7.4s-2.8-7.4-6.4-7.4zm35.9 18.6l-.2-3.6c-1.9 2.7-5.2 4.2-8.3 4.2-6.1 0-10.5-5.1-10.5-11.8 0-6.7 4.5-11.8 10.5-11.8 3 0 6.1 1.2 8 3.7V75.4h6v31.1zM242 87.9c-3.5 0-6.4 2.7-6.4 7.4 0 4.6 2.9 7.4 6.4 7.4 3.5 0 6.4-2.7 6.4-7.4s-2.9-7.4-6.4-7.4zm37.7 7.5h-14.9c-.2 3.4 1.6 7.3 7.6 7.3 2.5 0 5.5-1.1 7.3-2.6v4.4c-2.1 1.7-5.4 2.6-9.1 2.6-6.9 0-11.7-5-11.7-12 0-7.2 5.5-11.7 11.3-11.7 5.7 0 10 3.6 10 8.9-.2 1-.3 2.3-.5 3.1zm-9.5-8.1c-2.5 0-4.7 1.5-5.2 4.9h9.6c.5-2.7-1.3-4.9-4.4-4.9zm20.9 6.9v12.2h-6V84.1h5.5l.3 4.1c1.3-2.6 4.6-4.7 8.3-4.7v5.9c-4.1-1.1-8.1 1-8.1 4.8zM55.5 135.6c2.1 0 2.3-.4 2.3-2.9v-8.2c0-2.5-.2-2.9-2.3-2.9v-.5H62v.5c-2.1 0-2.3.4-2.3 2.9v7.8c0 2.5.2 2.9 2.3 2.9h1.7c2.2 0 2.4-.7 2.8-1.9l.1-.5h.5l-.2 3.3H55.5zm18.1-5c0-3.4 2.4-5.7 4.9-5.7 2.4 0 4 1.7 4 4 0 .4-.1.7-.1 1h-6.8v.8c0 2.3.7 4.7 3.6 4.7 1.2 0 2.4-.7 3.2-1.5l.5.6c-.9 1.1-2.2 1.9-4.2 1.9-3.2 0-5.1-2.5-5.1-5.8zm7.1-1.7c0-.2.1-.4.1-.7 0-1.3-.6-2.3-2.1-2.3-1.4 0-2.4 1-2.8 3zm10.7 4.3v-7.1h-1.6v-.7c1.7-.4 2.2-1.5 2.4-3.4h1v3.2h2.3v.9h-2.3v7.1c0 1.4.2 2 1.1 2 .6 0 1-.3 1.6-.9l.5.5c-.8 1-1.6 1.6-2.7 1.6-1.6 0-2.3-.9-2.3-3.2zm12.3-7.6c.9-1 1.2-1.7 1.4-2.7h-.2c-.6 0-1.2-.6-1.2-1.2s.6-1.2 1.2-1.2 1.3.5 1.3 1.5c0 1.1-.7 2.8-2.2 3.8zm9.3 6.8h.5c.1 1.4 1.4 3 3.5 3 1.3 0 1.9-.8 1.9-1.8 0-.8-.6-1.4-1.9-2.1l-1.7-.9c-1.2-.6-2-1.6-2-3 0-1.7 1.5-2.8 3.3-2.8 1.4 0 2.2.6 2.5.9.2-.2.3-.6.3-.8h.4v3h-.5c-.1-1.3-1.1-2.2-2.6-2.2-1.3 0-1.8.8-1.8 1.6s.7 1.4 1.9 2l1.5.7c1.4.7 2.2 1.6 2.2 3.1 0 1.9-1.5 3.2-3.6 3.2-1.1 0-2.3-.5-2.9-1.2-.3.3-.5.7-.5 1.1h-.4v-3.8zm25.2-3.9c0-4.4 2.8-8 6.8-8 1.8 0 3.3.6 4.3 1.8.3-.3.6-.6.7-1.2h.5v5.2h-.6c-.7-3.3-2.3-4.8-4.7-4.8-3.7 0-4.8 3.8-4.8 6.9 0 3.1 1.1 6.9 4.8 6.9 2.4 0 4-1.6 4.7-4.8h.5v5.2h-.5c-.1-.6-.4-1-.7-1.2-1 1.2-2.5 1.8-4.3 1.8-3.9.2-6.7-3.4-6.7-7.8zm19.8 7.1c1.7 0 1.9-.4 1.9-2.9V129c0-2.5-.2-2.9-1.9-2.9v-.5l3.2-.6c.2.3.5 1.4.5 2.4.5-1.3 1.5-2.3 2.7-2.3 1.7 0 2.1 1.2 2.1 1.8 0 .6-.2 1.3-1.1 1.3-.5 0-.9-.5-.9-1 0-.6-.2-1.1-.9-1.1s-2 1.4-2 3.8v2.9c0 2.5.2 2.9 1.9 2.9v.5h-5.7v-.6zm15.1-5c0-3.4 2.4-5.7 4.9-5.7 2.4 0 4 1.7 4 4 0 .4-.1.7-.1 1h-6.8v.8c0 2.3.7 4.7 3.6 4.7 1.2 0 2.4-.7 3.2-1.5l.5.6c-.9 1.1-2.2 1.9-4.2 1.9-3.2 0-5.1-2.5-5.1-5.8zm7-1.7v-.7c0-1.3-.6-2.3-2.1-2.3-1.4 0-2.4 1-2.8 3zm9.5 4.8c0-2.5 2.6-3.7 6.2-4.3v-.7c0-2.1-.5-2.8-1.9-2.8-.8 0-1.9.5-1.9 1.5 0 .5-.4.9-.9.9s-.9-.4-.9-.9c0-1.2 1.8-2.3 3.7-2.3 2.8 0 3.8 1.3 3.8 3.7v5.6c0 .7.2 1.1.7 1.1.3 0 .6-.2.8-.4l.4.5c-.5.6-1.3.8-1.9.8-1.1 0-1.5-.7-1.7-1.7-1.4 1.3-2.2 1.7-3.4 1.7-1.9-.1-3-1.2-3-2.7zm6.3.1v-3.7c-3.1.6-4.3 1.8-4.3 3.3 0 1.1.6 1.7 1.6 1.7.6.1 1.3-.1 2.7-1.3zm11.6-.6v-7.1h-1.6v-.7c1.7-.4 2.2-1.5 2.4-3.4h1v3.2h2.3v.9h-2.3v7.1c0 1.4.2 2 1.1 2 .6 0 1-.3 1.6-.9l.5.5c-.8 1-1.6 1.6-2.7 1.6-1.6 0-2.3-.9-2.3-3.2zm11.7-2.6c0-3.4 2.4-5.7 4.9-5.7 2.4 0 4 1.7 4 4 0 .4-.1.7-.1 1h-6.8v.8c0 2.3.7 4.7 3.6 4.7 1.2 0 2.4-.7 3.2-1.5l.5.6c-.9 1.1-2.2 1.9-4.2 1.9-3.2 0-5.1-2.5-5.1-5.8zm7-1.7v-.7c0-1.3-.6-2.3-2.1-2.3-1.4 0-2.4 1-2.8 3z" fill="#0A3A54"/></svg>